<svg width="11" height="8" viewBox="0 0 11 8" fill="none" xmlns="http://www.w3.org/2000/svg"><path d="M1.13 7.26h1.4V2.42l.1-.59-.4.47-1.1.79-.38-.51 2.2-1.7h.36v6.38h1.37V8H1.13v-.74Zm8.83-4.67c0 .353-.067.717-.2 1.09a6.558 6.558 0 0 1-.51 1.11c-.207.373-.44.74-.7 1.1-.26.353-.52.69-.78 1.01l-.49.43v.04l.64-.11h2.18V8H6.12v-.29c.147-.153.323-.343.53-.57a16.068 16.068 0 0 0 1.3-1.63c.22-.313.417-.63.59-.95.18-.32.323-.637.43-.95.107-.313.16-.61.16-.89 0-.327-.093-.597-.28-.81-.187-.22-.47-.33-.85-.33-.253 0-.5.053-.74.16-.24.1-.447.217-.62.35l-.33-.57c.233-.2.51-.357.83-.47.32-.113.663-.17 1.03-.17.287 0 .54.043.76.13.22.08.407.197.56.35.153.153.27.337.35.55.08.207.12.433.12.68Z" fill="#fff"/></svg>